<svg width="23" height="19" viewBox="0 0 23 19" fill="none" xmlns="http://www.w3.org/2000/svg">
<g id="distance">
<path id="Subtract" fill-rule="evenodd" clip-rule="evenodd" d="M4.73538 6.08826C3.7971 6.08826 2.99502 6.43761 2.32914 7.13631C1.6784 7.81913 1.35303 8.65281 1.35303 9.63735C1.35303 10.1296 1.4741 10.7013 1.71623 11.3523C1.95837 12.0034 2.22321 12.5909 2.51075 13.115C2.81342 13.6231 3.16149 14.1551 3.55496 14.7109C3.94843 15.2508 4.22084 15.616 4.37217 15.8066C4.52351 15.9812 4.64458 16.1242 4.73538 16.2353L5.09859 15.8304C5.32559 15.5446 5.59799 15.1634 5.9158 14.6871C6.24874 14.1948 6.58168 13.6708 6.91461 13.115C7.24755 12.5592 7.52752 11.9637 7.75453 11.3285C7.99667 10.6933 8.11773 10.1296 8.11773 9.63735C8.11773 8.65281 7.78479 7.81913 7.11892 7.13631C6.46817 6.43761 5.67366 6.08826 4.73538 6.08826ZM4.73628 11.7264C5.98163 11.7264 6.99118 10.7169 6.99118 9.4715C6.99118 8.22616 5.98163 7.2166 4.73628 7.2166C3.49093 7.2166 2.48138 8.22616 2.48138 9.4715C2.48138 10.7169 3.49093 11.7264 4.73628 11.7264Z" fill="#6A728C"/>
<path id="Subtract_2" fill-rule="evenodd" clip-rule="evenodd" d="M16.9118 2.02942C15.5982 2.02942 14.4753 2.51851 13.5431 3.49669C12.632 4.45264 12.1765 5.61979 12.1765 6.99814C12.1765 7.68732 12.346 8.48765 12.685 9.39914C13.024 10.3106 13.3948 11.1332 13.7973 11.8668C14.2211 12.5782 14.7084 13.323 15.2592 14.1011C15.8101 14.857 16.1914 15.3683 16.4033 15.6351C16.6152 15.8796 16.7847 16.0797 16.9118 16.2353L17.4203 15.6684C17.7381 15.2682 18.1195 14.7347 18.5644 14.0677C19.0305 13.3786 19.4966 12.6449 19.9627 11.8668C20.4288 11.0887 20.8208 10.255 21.1386 9.36579C21.4776 8.47653 21.6471 7.68732 21.6471 6.99814C21.6471 5.61979 21.181 4.45264 20.2488 3.49669C19.3377 2.51851 18.2254 2.02942 16.9118 2.02942ZM16.9123 9.922C18.6558 9.922 20.0692 8.50863 20.0692 6.76514C20.0692 5.02165 18.6558 3.60828 16.9123 3.60828C15.1688 3.60828 13.7554 5.02165 13.7554 6.76514C13.7554 8.50863 15.1688 9.922 16.9123 9.922Z" fill="#4C5266"/>
<line id="Line 8" x1="6.76477" y1="15.5588" x2="14.8824" y2="15.5588" stroke="#4C5266" stroke-width="1.35294" stroke-dasharray="1.35 1.35"/>
</g>
</svg>
